HIERARCHY
ROOT Pelvis
{
	OFFSET 0.000000 0.000000 0.000000
	CHANNELS 6 Xposition Yposition Zposition Xrotation Yrotation Zrotation
	JOINT LeftUpLeg_virtual
	{
		OFFSET 0.000000 0.000000 0.000000
		CHANNELS 3 Xrotation Yrotation Zrotation
		JOINT LeftUpLeg
		{
			OFFSET 8.479700 -4.795502 -0.379100
			CHANNELS 3 Xrotation Yrotation Zrotation
			JOINT LeftLeg
			{
				OFFSET 0.024144 -32.555107 0.112900
				CHANNELS 3 Xrotation Yrotation Zrotation
				JOINT LeftFoot
				{
					OFFSET -0.024144 -32.638630 -3.012600
					CHANNELS 3 Xrotation Yrotation Zrotation
					JOINT LeftToeBase
					{
						OFFSET 0.970200 -13.225400 11.864200
						CHANNELS 3 Xrotation Yrotation Zrotation
						End Site
						{
							OFFSET 0 0 0
						}
					}
				}
			}
		}
	}
	JOINT RightUpLeg_virtual
	{
		OFFSET 0.000000 0.000000 0.000000
		CHANNELS 3 Xrotation Yrotation Zrotation
		JOINT RightUpLeg
		{
			OFFSET -8.479700 -4.795502 -0.379100
			CHANNELS 3 Xrotation Yrotation Zrotation
			JOINT RightLeg
			{
				OFFSET -0.023144 -32.555092 0.112900
				CHANNELS 3 Xrotation Yrotation Zrotation
				JOINT RightFoot
				{
					OFFSET 0.023144 -32.638641 -3.012700
					CHANNELS 3 Xrotation Yrotation Zrotation
					JOINT RightToeBase
					{
						OFFSET -0.970200 -13.225400 11.864200
						CHANNELS 3 Xrotation Yrotation Zrotation
						End Site
						{
							OFFSET 0 0 0
						}
					}
				}
			}
		}
	}
	JOINT Hips_virtual
	{
		OFFSET 0.000000 0.000000 0.000000
		CHANNELS 3 Xrotation Yrotation Zrotation
		JOINT Hips
		{
			OFFSET -0.000000 -0.000000 -0.000000
			CHANNELS 3 Xrotation Yrotation Zrotation
			JOINT Spine
			{
				OFFSET 0.000000 7.722000 1.166200
				CHANNELS 3 Xrotation Yrotation Zrotation
				JOINT Spine1
				{
					OFFSET 0.000000 12.024101 0.248800
					CHANNELS 3 Xrotation Yrotation Zrotation
					JOINT Spine2
					{
						OFFSET 0.000000 11.502998 -0.491200
						CHANNELS 3 Xrotation Yrotation Zrotation
						JOINT Neck_virtual
						{
							OFFSET 0.000000 0.000000 0.000000
							CHANNELS 3 Xrotation Yrotation Zrotation
							JOINT Neck
							{
								OFFSET 0.000000 18.430702 -3.123100
								CHANNELS 3 Xrotation Yrotation Zrotation
								JOINT Head
								{
									OFFSET 0.000000 9.051102 1.034000
									CHANNELS 3 Xrotation Yrotation Zrotation
									End Site
									{
										OFFSET 0 0 0
									}
								}
							}
						}
						JOINT LeftShoulder_virtual
						{
							OFFSET 0.000000 0.000000 0.000000
							CHANNELS 3 Xrotation Yrotation Zrotation
							JOINT LeftShoulder
							{
								OFFSET 6.197800 13.665199 -4.064700
								CHANNELS 3 Xrotation Yrotation Zrotation
								JOINT LeftArm
								{
									OFFSET 7.778100 -0.187103 -1.709300
									CHANNELS 3 Xrotation Yrotation Zrotation
									JOINT LeftForeArm
									{
										OFFSET 22.049376 0.000000 0.000000
										CHANNELS 3 Xrotation Yrotation Zrotation
										JOINT LeftHand
										{
											OFFSET 23.009392 0.000000 0.000000
											CHANNELS 3 Xrotation Yrotation Zrotation
											End Site
											{
												OFFSET 0 0 0
											}
										}
									}
								}
							}
						}
						JOINT RightShoulder_virtual
						{
							OFFSET 0.000000 0.000000 0.000000
							CHANNELS 3 Xrotation Yrotation Zrotation
							JOINT RightShoulder
							{
								OFFSET -6.197800 13.665199 -4.064700
								CHANNELS 3 Xrotation Yrotation Zrotation
								JOINT RightArm
								{
									OFFSET -7.778100 -0.187103 -1.709300
									CHANNELS 3 Xrotation Yrotation Zrotation
									JOINT RightForeArm
									{
										OFFSET -22.049376 0.000000 0.000000
										CHANNELS 3 Xrotation Yrotation Zrotation
										JOINT RightHand
										{
											OFFSET -23.009392 0.000000 0.000000
											CHANNELS 3 Xrotation Yrotation Zrotation
											End Site
											{
												OFFSET 0 0 0
											}
										}
									}
								}
							}
						}
					}
				}
			}
		}
	}
}
MOTION
Frames: 4
Frame Time: 0.03333333
-0.129767 79.310707 -0.089066 0.000000 0.000000 0.000000 1.363291 -27.067070 0.844933 -28.951871 25.738226 14.206081 26.259036 8.647441 10.430566 -1.014866 0.648592 -12.032125 0.000000 0.000000 0.000000 1.363291 -27.067070 0.844933 -20.358910 -17.138883 -9.685945 31.930219 -0.953280 -7.218597 -13.504722 -1.887746 10.682253 0.000000 0.000000 0.000000 1.363291 -27.067070 0.844933 0.000000 0.000000 0.000000 3.671064 -1.986463 1.002944 1.363086 -0.820711 0.173835 0.000000 0.000000 0.000000 1.366613 -0.813814 0.178821 -1.889907 4.550439 2.461101 0.000000 0.000000 0.000000 1.366613 -0.813814 0.178821 -0.311618 3.473789 4.919200 -51.541803 -1.692571 -52.291904 0.000162 -84.594482 0.000140 0.000000 0.000000 0.000000 1.366613 -0.813814 0.178821 -1.129698 -10.661994 8.143386 -61.066959 65.570424 77.632545 -0.000183 81.745883 0.000169 0.000000 0.000000 0.000000 
-0.128885 79.311493 -0.091530 0.000000 0.000000 0.000000 1.363658 -27.061565 0.838817 -28.972703 25.776108 14.227317 26.263023 8.599942 10.431476 -1.015454 0.648591 -12.020291 0.000000 0.000000 0.000000 1.363658 -27.061565 0.838817 -20.351720 -17.136642 -9.669092 31.918475 -0.975133 -7.229302 -13.496829 -1.888267 10.690948 0.000000 0.000000 0.000000 1.363658 -27.061565 0.838817 0.000000 -0.000001 0.000000 3.666233 -1.986447 1.003064 1.363089 -0.820722 0.173820 0.000000 0.000000 0.000000 1.366616 -0.813802 0.178804 -1.882821 4.550447 2.481604 0.000000 0.000000 0.000000 1.366616 -0.813802 0.178804 -0.308281 3.435131 4.918956 -51.567512 -1.700402 -52.299325 0.000600 -84.588505 0.000626 0.000000 0.000000 0.000000 1.366616 -0.813802 0.178804 -1.127374 -10.685157 8.203406 -61.032767 65.576865 77.592677 0.000078 81.763313 -0.000067 0.000000 0.000000 0.000000 
-0.129735 79.312233 -0.092983 0.000000 0.000000 0.000000 1.364022 -27.055293 0.832611 -28.989334 25.802947 14.245878 26.266450 8.563129 10.431687 -1.015818 0.648587 -12.012098 0.000000 0.000000 0.000000 1.364022 -27.055293 0.832611 -20.342701 -17.129496 -9.654688 31.908687 -1.001557 -7.230793 -13.491629 -1.888504 10.696236 0.000000 0.000000 0.000000 1.364022 -27.055293 0.832611 0.000000 0.000001 0.000000 3.659635 -1.986491 1.003243 1.361890 -0.820749 0.173847 0.000000 0.000000 0.000000 1.365415 -0.813849 0.178831 -1.873935 4.545143 2.494240 0.000000 0.000000 0.000000 1.365415 -0.813849 0.178831 -0.307941 3.431328 4.918804 -51.600819 -1.706268 -52.314820 0.000805 -84.572413 0.000839 0.000000 0.000000 0.000000 1.365415 -0.813849 0.178831 -1.125350 -10.703799 8.253318 -60.998043 65.595907 77.553615 0.000106 81.773210 -0.000119 0.000000 0.000000 0.000000 
-0.130453 79.312988 -0.094690 0.000000 0.000000 0.000000 1.364397 -27.049395 0.825145 -29.011584 25.841310 14.271043 26.272336 8.512747 10.431852 -1.017664 0.648683 -12.001127 0.000000 0.000000 0.000000 1.364397 -27.049395 0.825145 -20.331508 -17.114842 -9.639636 31.897899 -1.031241 -7.225999 -13.486076 -1.887720 10.699799 0.000000 0.000000 0.000000 1.364397 -27.049395 0.825145 0.000000 0.000000 0.000000 3.652950 -1.983180 1.003559 1.359631 -0.820056 0.173905 0.000000 0.000000 0.000000 1.363165 -0.813154 0.178892 -1.864814 4.541549 2.505154 0.000000 0.000000 0.000000 1.363165 -0.813154 0.178892 -0.306417 3.435014 4.888567 -51.635851 -1.710354 -52.332783 -0.000354 -84.553924 -0.000367 0.000000 0.000000 0.000000 1.363165 -0.813154 0.178892 -1.123387 -10.721031 8.300133 -60.963311 65.619834 77.514430 0.000438 81.780683 -0.000463 0.000000 0.000000 0.000000 
